<svg xmlns="http://www.w3.org/2000/svg" width="36" height="34" viewBox="0 0 36 34">
  <g id="icon_footer_bookcash" transform="translate(-165 31.808)">
    <path id="패스_855" data-name="패스 855" d="M218.23,61.206c-1.249-.441-2.4-.952-2.354-1.739,0-.485.6-1.007,1.918-1.007a5.884,5.884,0,0,1,2.437.513l.715-1.565a7.559,7.559,0,0,0-2.505-.63V54.563h-1.712v2.283a2.8,2.8,0,0,0-2.563,2.569c-.125,2.134,2.231,2.968,3.5,3.415,1.729.612,2.544,1,2.544,1.94,0,1.547-1.847,1.778-2.947,1.778a5.254,5.254,0,0,1-2.326-.51l-.89,1.472a6.42,6.42,0,0,0,2.684.739v2.193h1.712V68.191c2.54-.368,3.478-1.938,3.478-3.42C221.919,62.51,219.874,61.787,218.23,61.206Zm10.228-20.343c-6.277,0-13.032,1.355-13.032,4.331v4.538a1.913,1.913,0,0,0,.11.626A12.349,12.349,0,1,0,228.6,68.342c6.235-.021,12.89-1.376,12.89-4.329V45.194C241.49,42.218,234.734,40.863,228.458,40.863ZM217.776,73.14A10.638,10.638,0,1,1,228.35,62.5,10.618,10.618,0,0,1,217.776,73.14Zm22-9.127c0,.748-3.551,2.455-10.427,2.594a12.347,12.347,0,0,0,.669-3.269c3.871-.138,7.649-.791,9.757-2.009Zm0-4.975c0,.787-3.442,2.344-9.76,2.575a12.338,12.338,0,0,0-.59-3.005c4.042-.09,8.124-.741,10.35-2.024Zm0-4.747c0,.771-3.769,2.562-11.066,2.6a12.393,12.393,0,0,0-2.026-2.878c.586.024,1.174.045,1.772.045,4.345,0,8.916-.651,11.32-2.038Zm0-4.56c0,.779-3.852,2.608-11.32,2.608a39.693,39.693,0,0,1-4.01-.2,12.152,12.152,0,0,0-6.672-2c-.111,0-.219.014-.33.016-.22-.191-.308-.345-.308-.427V47.491l.029.016c.027.016.058.03.086.046.174.1.359.187.552.276.059.027.118.054.179.08.226.1.459.192.707.281l.009,0c.252.09.519.172.792.253l.222.063c.239.066.485.131.737.19l.133.033c.294.068.6.131.907.189.078.015.158.029.236.044.256.047.516.09.781.131l.217.034q.485.071.985.129l.219.023q.416.047.84.084l.259.022q.514.041,1.032.071l.163.008q.451.023.9.037l.284.008q.525.013,1.049.014t1.049-.014l.284-.008q.452-.014.9-.037l.162-.008q.519-.028,1.032-.071l.26-.022q.422-.037.838-.084l.221-.023q.5-.058.983-.129l.219-.034q.4-.061.778-.13l.238-.044c.309-.059.612-.121.906-.189l.134-.033q.378-.09.735-.19l.222-.063c.273-.081.54-.164.792-.253l.01,0c.247-.088.48-.183.705-.28l.179-.08c.193-.089.378-.18.552-.276.028-.016.059-.03.086-.046l.03-.016Zm-11.32-1.93c-7.469,0-11.32-1.828-11.32-2.608s3.851-2.608,11.32-2.608,11.32,1.828,11.32,2.608S235.926,47.8,228.458,47.8Z" transform="translate(-40.49 -72.671)"/>
  </g>
</svg>
