<svg xmlns="http://www.w3.org/2000/svg" width="26" height="26" viewBox="0 0 26 26">
  <defs>
    <style>
      .cls-1 {
        fill: #00aced;
      }

      .cls-2 {
        fill: #fff;
      }
    </style>
  </defs>
  <g id="icon_footer_twitter" transform="translate(0 0)">
    <circle id="타원_1" data-name="타원 1" class="cls-1" cx="13" cy="13" r="13" transform="translate(0 0)"/>
    <path id="icon" class="cls-2" d="M79.157,109.154a7.664,7.664,0,0,0,7.716-7.716c0-.117,0-.234-.008-.351a5.518,5.518,0,0,0,1.353-1.4,5.413,5.413,0,0,1-1.557.427,2.721,2.721,0,0,0,1.193-1.5,5.435,5.435,0,0,1-1.722.658,2.714,2.714,0,0,0-4.622,2.473,7.7,7.7,0,0,1-5.59-2.834,2.714,2.714,0,0,0,.84,3.621,2.692,2.692,0,0,1-1.228-.339c0,.011,0,.023,0,.035a2.713,2.713,0,0,0,2.176,2.659,2.707,2.707,0,0,1-1.225.046,2.715,2.715,0,0,0,2.534,1.884,5.442,5.442,0,0,1-3.368,1.161,5.519,5.519,0,0,1-.647-.038,7.678,7.678,0,0,0,4.157,1.218" transform="translate(-67.859 -90.098)"/>
  </g>
</svg>
