<svg xmlns="http://www.w3.org/2000/svg" width="26" height="26" viewBox="0 0 26 26">
  <defs>
    <style>
      .cls-1 {
        fill: #36ac37;
      }

      .cls-2 {
        fill: #fff;
      }
    </style>
  </defs>
  <g id="icon_footer_blog" transform="translate(0 0)">
    <circle id="bg" class="cls-1" cx="13" cy="13" r="13" transform="translate(0 0)"/>
    <g id="icon" transform="translate(4.969 6.137)">
      <path id="패스_510" data-name="패스 510" class="cls-2" d="M185.245,167.822a.6.6,0,1,0,.6.6A.6.6,0,0,0,185.245,167.822Z" transform="translate(-181.675 -162.324)"/>
      <ellipse id="타원_39" data-name="타원 39" class="cls-2" cx="0.647" cy="0.647" rx="0.647" ry="0.647" transform="translate(8.418 5.437)"/>
      <path id="패스_511" data-name="패스 511" class="cls-2" d="M171.454,117.055h-11.9a2.168,2.168,0,0,0-2.173,2.163v7.028a2.168,2.168,0,0,0,2.173,2.163h4.2l1.429,3.351s.1.291.337.291h0c.238,0,.337-.291.337-.291l1.43-3.351h4.164a2.168,2.168,0,0,0,2.173-2.163v-7.028A2.168,2.168,0,0,0,171.454,117.055Zm-8.968,6.212a1.344,1.344,0,0,1-1.342,1.321,1.117,1.117,0,0,1-.808-.341v.232h-.972V120.49s0,0,0,0v0c.06.01.972,0,.972,0v1.526c.229-.388.89-.381.89-.381A1.417,1.417,0,0,1,162.486,123.267Zm1.711-1.512v2.731h-.951v-2.7c0-.368-.459-.47-.459-.47v-.954A1.311,1.311,0,0,1,164.2,121.755Zm2.255,2.835a1.467,1.467,0,1,1,1.595-1.461A1.532,1.532,0,0,1,166.452,124.591Zm5.212,0a1.353,1.353,0,0,1-1.4,1.388h-.431v-.9h.26s.6.054.589-.858c0,0-.116.369-.951.369a1.252,1.252,0,0,1-1.184-1.235v-.436a1.349,1.349,0,0,1,1.328-1.287.971.971,0,0,1,.828.368v-.293h.965Z" transform="translate(-157.382 -117.055)"/>
      <ellipse id="타원_40" data-name="타원 40" class="cls-2" cx="0.632" cy="0.632" rx="0.632" ry="0.632" transform="translate(12.111 5.452)"/>
    </g>
  </g>
</svg>
