<svg xmlns="http://www.w3.org/2000/svg" width="40" height="40" viewBox="0 0 40 40">
  <defs>
    <style>
      .cls-1 {
        font-size: 7px;
        font-family: NotoSansCJKkr-Bold, Noto Sans CJK KR;
        font-weight: 700;
      }
    </style>
  </defs>
  <g id="icon_footer_coupon" transform="translate(-232.517 -238.345)">
    <path id="패스_834" data-name="패스 834" d="M305.074,349.606l-2.476-3.435a1.563,1.563,0,0,0-1.263-.649,1.532,1.532,0,0,0-.669.153,2.331,2.331,0,0,1-1.019.233,2.37,2.37,0,0,1-1.7-4.011,1.559,1.559,0,0,0,.137-1.994l-2.476-3.435a1.563,1.563,0,0,0-1.266-.647,1.545,1.545,0,0,0-.911.3L267.888,354.6a1.564,1.564,0,0,0-.351,2.181l2.852,3.956a.856.856,0,0,0,.693.354.847.847,0,0,0,.5-.162,2.339,2.339,0,0,1,1.379-.449,2.4,2.4,0,0,1,.381.031,2.369,2.369,0,0,1,1.328,3.979,1.559,1.559,0,0,0-.137,1.994l2.476,3.435a1.564,1.564,0,0,0,1.266.647,1.544,1.544,0,0,0,.911-.3l25.538-18.482A1.566,1.566,0,0,0,305.074,349.606Zm-28.81,10.854a4.043,4.043,0,0,0-2.652-1.638,4.122,4.122,0,0,0-.656-.053,3.993,3.993,0,0,0-1.631.345l-2.318-3.215,19.258-13.937a.7.7,0,0,0,.732-.055l.247-.179a.7.7,0,0,0,.282-.679l4.78-3.459,2.318,3.215a4.081,4.081,0,0,0,3.023,6.813,4.021,4.021,0,0,0,1.638-.347l2.318,3.215-4.78,3.459a.7.7,0,0,0-.731.055l-.247.179a.7.7,0,0,0-.281.678L278.305,368.8l-2.318-3.215A4.079,4.079,0,0,0,276.264,360.46Z" transform="translate(-32.852 -92.219)"/>
    <path id="패스_835" data-name="패스 835" d="M742.051,559.249l.747,1.035a.687.687,0,0,0,.959.155l.242-.175a.688.688,0,0,0,.155-.959l-.747-1.035a.689.689,0,0,0-.557-.285.682.682,0,0,0-.4.13l-.242.175A.688.688,0,0,0,742.051,559.249Z" transform="translate(-481.344 -302.033)"/>
    <path id="패스_836" data-name="패스 836" d="M779.938,611.7l.747,1.035a.687.687,0,0,0,.959.155l.242-.175a.687.687,0,0,0,.155-.959l-.747-1.035a.689.689,0,0,0-.557-.285.682.682,0,0,0-.4.13l-.242.175A.688.688,0,0,0,779.938,611.7Z" transform="translate(-517.144 -351.596)"/>
    <path id="패스_837" data-name="패스 837" d="M667.023,455.378a.689.689,0,0,0,.557.285.682.682,0,0,0,.4-.13l.242-.175a.687.687,0,0,0,.155-.959l-.747-1.035a.687.687,0,0,0-.959-.155l-.242.175a.688.688,0,0,0-.155.959Z" transform="translate(-409.743 -202.905)"/>
    <path id="패스_838" data-name="패스 838" d="M704.163,506.8l.747,1.035a.689.689,0,0,0,.557.285.682.682,0,0,0,.4-.13l.242-.175a.688.688,0,0,0,.155-.959l-.747-1.035a.689.689,0,0,0-.557-.285.682.682,0,0,0-.4.13l-.242.175A.688.688,0,0,0,704.163,506.8Z" transform="translate(-445.543 -252.469)"/>
    <path id="패스_839" data-name="패스 839" d="M236.051,724.251l-1.807-1.14.147-.232a.836.836,0,0,0-.678-1.282.839.839,0,0,0-.736.39l-.224.355a1.529,1.529,0,0,0,.477,2.106l1.93,1.217a.836.836,0,1,0,.892-1.414Z" transform="translate(0 -456.606)"/>
    <path id="패스_840" data-name="패스 840" d="M324.717,258.627a.836.836,0,0,0,1.153-.261l7.646-12.122.039,0a.69.69,0,0,0,.6-.32l.159-.252a.686.686,0,0,0,.009-.719l3.081-4.885,3.279,2.068a3.961,3.961,0,0,0,.238,3.275.82.82,0,0,0,.7.429.839.839,0,0,0,.577-.2.83.83,0,0,0,.192-1.027,2.348,2.348,0,0,1-.113-1.962,1.525,1.525,0,0,0-.6-1.861l-3.5-2.21a1.528,1.528,0,0,0-2.106.477l-11.616,18.416A.837.837,0,0,0,324.717,258.627Z" transform="translate(-86.859)"/>
    <path id="패스_841" data-name="패스 841" d="M521.472,378.243l-1.211-.764a.687.687,0,0,0-.947.215l-.159.252a.688.688,0,0,0,.215.948l1.211.764a.687.687,0,0,0,.948-.215l.159-.252a.687.687,0,0,0-.215-.948Z" transform="translate(-270.744 -131.37)"/>
    <path id="패스_842" data-name="패스 842" d="M574.3,411.2a.69.69,0,0,0-.6.32l-.159.252a.687.687,0,0,0,.557,1.053.69.69,0,0,0,.6-.32l.159-.252a.687.687,0,0,0-.557-1.053Z" transform="translate(-322.146 -163.341)"/>
    <text id="SALE" class="cls-1" transform="matrix(0.819, -0.574, 0.574, 0.819, 253.462, 264.377)"><tspan x="-8.599" y="0">SALE</tspan></text>
  </g>
</svg>
