<svg xmlns="http://www.w3.org/2000/svg" width="31.173" height="27.379" viewBox="0 0 31.173 27.379">
  <g id="icon_footer_download" transform="translate(-169 30.444)">
    <path id="패스_852" data-name="패스 852" d="M300.379,575.42a.794.794,0,0,0-.794.793v3.032a3.178,3.178,0,0,1-3.174,3.174h-21.65a3.178,3.178,0,0,1-3.174-3.174v-3.032a.794.794,0,0,0-1.587,0v3.032a4.767,4.767,0,0,0,4.761,4.761h21.65a4.767,4.767,0,0,0,4.761-4.761v-3.032a.793.793,0,0,0-.794-.793Z" transform="translate(-101 -587.072)"/>
    <path id="패스_853" data-name="패스 853" d="M341.891,623.144h19.95a.794.794,0,0,0,0-1.587h-19.95a.794.794,0,0,0,0,1.587Z" transform="translate(-167.097 -630.078)"/>
    <path id="패스_854" data-name="패스 854" d="M378.767,309.756l6.647,5.938a1.983,1.983,0,0,0,2.643,0l6.647-5.938a.794.794,0,0,0-1.057-1.184l-6.118,5.465v-15.38a.794.794,0,0,0-1.587,0v15.38l-6.118-5.465a.794.794,0,0,0-1.057,1.184Z" transform="translate(-201.503 -328.308)"/>
  </g>
</svg>
