<svg xmlns="http://www.w3.org/2000/svg" width="36" height="28.707" viewBox="0 0 36 28.707">
  <g id="icon_footer_library" transform="translate(-165 30)">
    <path id="패스_843" data-name="패스 843" d="M165-30V-6.75h36V-30ZM199.5-8.25h-33V-28.5h33Z"/>
    <path id="패스_844" data-name="패스 844" d="M189.823,3.5V2h-1.5V3.5h-3.75V2h-1.5V3.5h-4.061l-1.72,1.72,1.061,1.061L179.634,5h13.629l1.28,1.28L195.6,5.22l-1.72-1.72Z" transform="translate(-3.073 -7.573)"/>
    <path id="패스_845" data-name="패스 845" d="M185-8.5h1.5c0-1.219,1.717-2.25,3.75-2.25h5.25V-25h-5.25a5.864,5.864,0,0,0-4.5,1.8,5.864,5.864,0,0,0-4.5-1.8H176v14.25h5.25C183.283-10.75,185-9.719,185-8.5Zm5.25-15H194v11.25h-3.75a6.439,6.439,0,0,0-3.75,1.1v-10.1C186.5-22.469,188.217-23.5,190.25-23.5Zm-12.75,0h3.75c2.033,0,3.75,1.031,3.75,2.25v10.1a6.432,6.432,0,0,0-3.75-1.1H177.5Z" transform="translate(-2.75 -1.25)"/>
  </g>
</svg>
