<svg xmlns="http://www.w3.org/2000/svg" width="36" height="32" viewBox="0 0 36 32">
  <g id="icon_footer_remote" transform="translate(-165 30.323)">
    <path id="패스_846" data-name="패스 846" d="M229.615,49.595,225,48.639V43.25A2.244,2.244,0,0,0,222.787,41h-.019a2.271,2.271,0,0,0-2.268,2.25v7.883c-.257-.265-.576-.589-.91-.918a2.069,2.069,0,0,0-2.293-.327A1.893,1.893,0,0,0,216,51.5v.177l1.579,3.158c.106.213.212.449.325.7a10.057,10.057,0,0,0,2.6,3.82V60.5H219v5.25h13.5V60.5h-.75V59a1.877,1.877,0,0,1,.279-.733,3.237,3.237,0,0,0,.471-1.517V53A3.407,3.407,0,0,0,229.615,49.595ZM231,64.25H220.5V62H231Zm-9-3.75V58.634l-.289-.225a8.371,8.371,0,0,1-2.439-3.486c-.122-.272-.236-.528-.351-.758l-1.352-2.7a1.132,1.132,0,0,1,.522-.258.5.5,0,0,1,.446.08c.761.75,1.444,1.475,1.447,1.48l.222.236H222V43.25a.78.78,0,0,1,.777-.75.733.733,0,0,1,.723.75V49.86l5.816,1.2A1.952,1.952,0,0,1,231,53v3.75a1.983,1.983,0,0,1-.3.824A3.024,3.024,0,0,0,230.25,59v1.5Z" transform="translate(-31.5 -64.072)"/>
    <path id="패스_847" data-name="패스 847" d="M190,33V57.5h21V55.919H191.5V34.581h33V47.226H226V33Z" transform="translate(-25 -63.323)"/>
    <path id="패스_848" data-name="패스 848" d="M214.073,65h-1.5v1.5h-3V65h-1.5v1.5h-4.061l-1.72,1.72,1.061,1.061,1.28-1.28h10.189V66.5h-.75Z" transform="translate(-28.073 -70.073)"/>
    <path id="패스_849" data-name="패스 849" d="M215.114,47.829a7.65,7.65,0,0,0-10.314,0l1.027,1.094a6.127,6.127,0,0,1,8.262,0Z" transform="translate(-28.7 -66.095)"/>
    <path id="패스_850" data-name="패스 850" d="M208.358,51.824l1.067,1.055a2.044,2.044,0,0,1,2.845,0l1.065-1.056a3.479,3.479,0,0,0-2.488-1.04h0A3.478,3.478,0,0,0,208.358,51.824Z" transform="translate(-29.59 -67.187)"/>
    <path id="패스_851" data-name="패스 851" d="M215.49,44.823l1.016-1.1a10.64,10.64,0,0,0-14.185,0l1.018,1.1A9.114,9.114,0,0,1,215.49,44.823Z" transform="translate(-28.08 -65.047)"/>
  </g>
</svg>
