<svg xmlns="http://www.w3.org/2000/svg" width="26" height="26" viewBox="0 0 26 26">
  <defs>
    <style>
      .cls-1 {
        fill: red;
      }

      .cls-2 {
        fill: #fff;
      }
    </style>
  </defs>
  <g id="icon_footer_youtube" transform="translate(0 0)">
    <circle id="타원_5" data-name="타원 5" class="cls-1" cx="13" cy="13" r="13" transform="translate(0 0)"/>
    <path id="패스_517" data-name="패스 517" class="cls-2" d="M100.092,86.755a1.977,1.977,0,0,0-1.4-1.388,47.959,47.959,0,0,0-6.2-.328,47.959,47.959,0,0,0-6.2.328,1.977,1.977,0,0,0-1.4,1.388,21.685,21.685,0,0,0,0,7.556,1.977,1.977,0,0,0,1.4,1.388,47.961,47.961,0,0,0,6.2.328,47.96,47.96,0,0,0,6.2-.328,1.977,1.977,0,0,0,1.4-1.388,21.686,21.686,0,0,0,0-7.556ZM90.9,92.887V88.178l4.124,2.355Z" transform="translate(-79.645 -77.451)"/>
  </g>
</svg>
